<?xml version="1.0" encoding="UTF-8" standalone="no"?>
<svg
   xmlns:dc="http://purl.org/dc/elements/1.1/"
   xmlns:cc="http://creativecommons.org/ns#"
   xmlns:rdf="http://www.w3.org/1999/02/22-rdf-syntax-ns#"
   xmlns:svg="http://www.w3.org/2000/svg"
   xmlns="http://www.w3.org/2000/svg"
   xmlns:sodipodi="http://sodipodi.sourceforge.net/DTD/sodipodi-0.dtd"
   xmlns:inkscape="http://www.inkscape.org/namespaces/inkscape"
   width="724.73444"
   height="156.88889"
   version="1.1"
   id="svg3751"
   sodipodi:docname="bookstore.svg"
   inkscape:version="0.92.4 (5da689c313, 2019-01-14)">
  <title
     id="title3759">BookStore</title>
  <metadata
     id="metadata3757">
    <rdf:RDF>
      <cc:Work
         rdf:about="">
        <dc:format>image/svg+xml</dc:format>
        <dc:type
           rdf:resource="http://purl.org/dc/dcmitype/StillImage" />
        <dc:title>BookStore</dc:title>
      </cc:Work>
    </rdf:RDF>
  </metadata>
  <defs
     id="defs3755" />
  <sodipodi:namedview
     pagecolor="#ffffff"
     bordercolor="#666666"
     borderopacity="1"
     objecttolerance="10"
     gridtolerance="10"
     guidetolerance="10"
     inkscape:pageopacity="0"
     inkscape:pageshadow="2"
     inkscape:window-width="1920"
     inkscape:window-height="1017"
     id="namedview3753"
     showgrid="false"
     inkscape:zoom="1.7593361"
     inkscape:cx="363.44446"
     inkscape:cy="-83.55556"
     inkscape:window-x="-8"
     inkscape:window-y="-8"
     inkscape:window-maximized="1"
     inkscape:current-layer="svg3751" />
  <g
     id="g3739"
     transform="translate(-1.555542,-0.555561)">
    <rect
       id="canvas_background"
       height="484"
       width="732"
       y="-1"
       x="-1"
       style="fill:none" />
  </g>
  <g
     id="g3749"
     transform="translate(-1.555542,-0.555561)">
    <g
       id="svg_7">
      <g
         id="svg_5"
         style="fill:#4299e1">
        <path
           stroke="null"
           id="svg_4"
           d="m 160.44443,129.86632 h -18.6198 V 0.555561 H 102.10241 V 12.812505 H 87.206581 V 0.555561 H 47.48436 V 25.069449 H 20.175333 V 129.86632 H 1.555542 v 12.25694 h 12.413194 v 15.32118 H 26.38193 v -15.32118 h 109.23611 v 15.32118 h 12.41319 v -15.32118 h 12.4132 z M 87.206581,49.276913 H 102.10241 V 105.35243 H 87.206581 Z M 102.10241,25.069449 v 11.95052 H 87.206581 V 25.069449 Z M 47.48436,37.326393 v 11.95052 H 32.588527 V 37.326393 Z M 32.588527,129.86632 V 61.533857 H 47.48436 v 68.332463 z m 27.309027,0 V 12.812505 H 74.793387 V 129.86632 Z m 27.309027,0 v -12.25695 h 14.895829 v 12.25695 z m 27.309029,0 V 12.812505 h 14.89583 V 129.86632 Z m 0,0"
           inkscape:connector-curvature="0" />
      </g>
      <g
         id="svg_6">
        <path
           d="m 239.18,80.13 c 0,-12.48 -8.06,-19.89 -18.85,-23.27 8.45,-3.38 13.65,-9.88 13.65,-18.85 C 233.98,22.54 221.24,15 203.3,15 h -30.42 v 91 h 32.24 c 20.41,0 34.06,-7.8 34.06,-25.87 z M 201.61,29.82 c 7.93,0 13.13,3.77 13.13,10.66 0,6.89 -5.2,10.92 -13.13,10.92 H 191.47 V 29.82 Z M 191.47,91.18 V 64.92 h 11.96 c 9.49,0 16.51,3.9 16.51,12.87 0,9.49 -7.02,13.39 -16.51,13.39 z M 243.6,76.1 c 0,18.59 14.17,31.2 33.15,31.2 18.98,0 33.15,-12.61 33.15,-31.2 0,-18.59 -14.17,-31.2 -33.15,-31.2 -18.98,0 -33.15,12.61 -33.15,31.2 z m 17.29,0 c 0,-10.27 7.02,-17.03 15.86,-17.03 8.84,0 15.99,6.76 15.99,17.03 0,10.27 -7.15,16.9 -15.99,16.9 -8.84,0 -15.86,-6.63 -15.86,-16.9 z m 51.87,0 c 0,18.59 14.17,31.2 33.15,31.2 18.98,0 33.15,-12.61 33.15,-31.2 0,-18.59 -14.17,-31.2 -33.15,-31.2 -18.98,0 -33.15,12.61 -33.15,31.2 z m 17.29,0 c 0,-10.27 7.02,-17.03 15.86,-17.03 8.84,0 15.99,6.76 15.99,17.03 0,10.27 -7.15,16.9 -15.99,16.9 -8.84,0 -15.86,-6.63 -15.86,-16.9 z M 423.78,46.2 401.94,67.13 V 4.6 H 385.56 V 106 h 16.38 V 75.71 l 24.7,30.29 h 20.02 L 418.32,70.9 444.06,46.2 Z m 36.01,28.21 -13.65,9.23 c 5.72,14.43 20.02,24.83 36.14,24.83 18.46,0 32.11,-10.14 32.11,-27.69 0,-15.99 -11.44,-23.66 -23.14,-27.82 -10.92,-4.03 -20.93,-7.28 -20.93,-14.3 0,-5.72 4.03,-9.36 11.18,-9.36 7.93,0 13.52,5.07 17.42,12.09 l 14.3,-8.45 c -4.81,-10.01 -14.3,-19.76 -31.2,-19.76 -18.33,0 -30.81,10.14 -30.81,25.09 0,17.81 15.08,23.66 24.05,27.04 10.4,4.03 19.5,7.15 19.5,15.99 0,6.89 -4.29,10.66 -12.48,10.66 -10.14,0 -16.51,-6.24 -22.49,-17.55 z M 514.52,46.2 v 14.3 h 10.27 V 106 h 16.38 V 60.5 h 10.27 V 46.2 H 541.17 V 25.4 h -16.38 v 20.8 z m 36.14,29.9 c 0,18.59 14.17,31.2 33.15,31.2 18.98,0 33.15,-12.61 33.15,-31.2 0,-18.59 -14.17,-31.2 -33.15,-31.2 -18.98,0 -33.15,12.61 -33.15,31.2 z m 17.29,0 c 0,-10.27 7.02,-17.03 15.86,-17.03 8.84,0 15.99,6.76 15.99,17.03 0,10.27 -7.15,16.9 -15.99,16.9 -8.84,0 -15.86,-6.63 -15.86,-16.9 z m 89.96,-12.22 7.8,-14.43 c -2.47,-3.12 -6.63,-4.68 -10.92,-4.68 -5.33,0 -10.66,3.38 -14.3,8.71 V 46.2 H 623.85 V 106 h 16.64 V 74.41 c 0,-8.58 3.38,-13.91 9.75,-13.91 3.38,0 5.33,1.3 7.67,3.38 z m 68.25,26.52 -14.82,-4.55 c -3.25,5.33 -8.58,8.58 -16.12,8.58 -7.93,0 -13.91,-4.55 -15.08,-14.56 h 46.02 c 0.13,-1.82 0.13,-3.51 0.13,-4.55 0,-18.85 -11.31,-30.42 -31.07,-30.42 -18.33,0 -29.38,10.14 -31.85,24.83 -0.39,2.08 -0.52,4.16 -0.52,6.37 0,18.07 12.09,31.2 32.24,31.2 16.64,0 25.09,-6.63 31.07,-16.9 z m -31.2,-33.54 c 8.06,0 12.35,4.81 13.26,12.61 H 680.4 c 1.17,-8.06 6.89,-12.61 14.56,-12.61 z"
           id="title"
           inkscape:connector-curvature="0"
           style="fill:#4299e1" />
        <path
           d="m 196.11,138.14 c 0.61,-0.44 1.99,-1.34 3.83,-1.34 1.4,0 2.72,0.67 2.72,1.96 v 2.16 c -0.73,-0.48 -1.82,-0.93 -3.33,-0.93 -3.39,0 -5.49,1.6 -5.49,4.31 0,2.64 1.99,3.98 4.42,3.98 1.94,0 3.62,-0.76 4.4,-2.13 V 148 h 2.24 v -9.24 c 0,-2.49 -2.02,-3.92 -4.96,-3.92 -2.32,0 -3.97,0.9 -4.92,1.6 z m 0,6.08 c 0,-1.57 1.06,-2.52 3.33,-2.52 1.23,0 2.24,0.25 3.22,0.76 v 0.5 c 0,2.41 -1.6,3.33 -3.84,3.33 -1.51,0 -2.71,-0.7 -2.71,-2.07 z m 21.98,-2.66 c 0,-2.69 1.87,-4.62 4.39,-4.62 2.08,0 3.9,1.09 4.48,2.35 v -2.8 c -0.89,-1.03 -2.71,-1.65 -4.48,-1.65 -3.78,0 -6.66,2.83 -6.66,6.72 0,3.89 2.88,6.72 6.66,6.72 1.77,0 3.59,-0.59 4.48,-1.65 v -2.8 c -0.58,1.26 -2.4,2.35 -4.48,2.35 -2.52,0 -4.39,-1.93 -4.39,-4.62 z m 13.38,-3.42 c 0.62,-0.44 1.99,-1.34 3.84,-1.34 1.4,0 2.71,0.67 2.71,1.96 v 2.16 c -0.72,-0.48 -1.82,-0.93 -3.33,-0.93 -3.39,0 -5.49,1.6 -5.49,4.31 0,2.64 1.99,3.98 4.43,3.98 1.93,0 3.61,-0.76 4.39,-2.13 V 148 h 2.24 v -9.24 c 0,-2.49 -2.01,-3.92 -4.95,-3.92 -2.33,0 -3.98,0.9 -4.93,1.6 z m 0,6.08 c 0,-1.57 1.07,-2.52 3.33,-2.52 1.24,0 2.24,0.25 3.22,0.76 v 0.5 c 0,2.41 -1.59,3.33 -3.83,3.33 -1.51,0 -2.72,-0.7 -2.72,-2.07 z m 12.57,-18.06 V 148 h 2.24 v -21.84 z m 6.44,3.64 c 0,0.84 0.7,1.54 1.54,1.54 0.84,0 1.54,-0.7 1.54,-1.54 0,-0.84 -0.7,-1.54 -1.54,-1.54 -0.84,0 -1.54,0.7 -1.54,1.54 z m 0.42,5.32 V 148 h 2.24 v -12.88 z m 19.74,6.44 c 0,-4.17 -2.88,-6.72 -6.38,-6.72 -1.9,0 -3.44,0.9 -4.4,2.49 v -11.17 h -2.24 V 148 h 2.24 v -2.21 c 0.96,1.59 2.5,2.49 4.4,2.49 3.5,0 6.38,-2.55 6.38,-6.72 z m -2.26,0 c 0,2.97 -2.02,4.62 -4.4,4.62 -1.96,0 -4.12,-1.65 -4.12,-4.62 0,-2.97 2.16,-4.62 4.12,-4.62 2.38,0 4.4,1.65 4.4,4.62 z m 11.48,-3.98 1.23,-1.84 c -0.67,-0.7 -1.49,-0.9 -2.41,-0.9 -0.98,0 -1.99,0.67 -2.72,1.76 v -1.48 h -2.24 V 148 h 2.24 v -7.84 c 0,-1.85 0.48,-3.22 2.16,-3.22 0.73,0 1.12,0.2 1.74,0.64 z m 14.16,7.42 -1.82,-1.14 c -0.86,1.4 -2.15,2.32 -4.03,2.32 -2.35,0 -3.89,-1.46 -4.09,-4.06 h 10.14 c 0.03,-0.22 0.03,-0.45 0.03,-0.67 0,-4.06 -2.44,-6.61 -6.08,-6.61 -3.33,0 -5.74,2.18 -6.27,5.35 -0.08,0.45 -0.11,0.89 -0.11,1.37 0,3.89 2.6,6.72 6.1,6.72 3.33,0 4.85,-1.32 6.13,-3.28 z m -5.85,-8.2 c 2.24,0 3.42,1.4 3.64,3.42 h -7.67 c 0.25,-2.13 1.96,-3.42 4.03,-3.42 z m 15.6,-1.68 5.6,13.86 3.67,-9.38 3.89,9.38 5.6,-13.86 h -2.52 l -3.25,8.43 -3.75,-9.41 -3.5,9.35 -3.22,-8.37 z m 31.69,9.88 -1.82,-1.14 c -0.86,1.4 -2.15,2.32 -4.03,2.32 -2.35,0 -3.89,-1.46 -4.09,-4.06 h 10.14 c 0.03,-0.22 0.03,-0.45 0.03,-0.67 0,-4.06 -2.44,-6.61 -6.08,-6.61 -3.33,0 -5.74,2.18 -6.27,5.35 -0.08,0.45 -0.11,0.89 -0.11,1.37 0,3.89 2.6,6.72 6.1,6.72 3.33,0 4.85,-1.32 6.13,-3.28 z m -5.85,-8.2 c 2.24,0 3.42,1.4 3.64,3.42 h -7.67 c 0.25,-2.13 1.96,-3.42 4.03,-3.42 z m 22.04,4.76 c 0,-4.17 -2.89,-6.72 -6.39,-6.72 -1.9,0 -3.44,0.9 -4.39,2.49 v -11.17 h -2.24 V 148 h 2.24 v -2.21 c 0.95,1.59 2.49,2.49 4.39,2.49 3.5,0 6.39,-2.55 6.39,-6.72 z m -2.27,0 c 0,2.97 -2.02,4.62 -4.4,4.62 -1.96,0 -4.11,-1.65 -4.11,-4.62 0,-2.97 2.15,-4.62 4.11,-4.62 2.38,0 4.4,1.65 4.4,4.62 z m 14.76,0 c 0,-2.69 1.87,-4.62 4.39,-4.62 2.07,0 3.89,1.09 4.48,2.35 v -2.8 c -0.89,-1.03 -2.71,-1.65 -4.48,-1.65 -3.78,0 -6.66,2.83 -6.66,6.72 0,3.89 2.88,6.72 6.66,6.72 1.77,0 3.59,-0.59 4.48,-1.65 v -2.8 c -0.59,1.26 -2.41,2.35 -4.48,2.35 -2.52,0 -4.39,-1.93 -4.39,-4.62 z m 12.37,-15.4 V 148 h 2.24 v -21.84 z m 6.44,3.64 c 0,0.84 0.7,1.54 1.54,1.54 0.84,0 1.54,-0.7 1.54,-1.54 0,-0.84 -0.7,-1.54 -1.54,-1.54 -0.84,0 -1.54,0.7 -1.54,1.54 z m 0.42,5.32 V 148 h 2.24 v -12.88 z m 17.98,9.88 -1.82,-1.14 c -0.87,1.4 -2.16,2.32 -4.03,2.32 -2.36,0 -3.9,-1.46 -4.09,-4.06 h 10.13 c 0.03,-0.22 0.03,-0.45 0.03,-0.67 0,-4.06 -2.43,-6.61 -6.07,-6.61 -3.34,0 -5.74,2.18 -6.28,5.35 -0.08,0.45 -0.11,0.89 -0.11,1.37 0,3.89 2.61,6.72 6.11,6.72 3.33,0 4.84,-1.32 6.13,-3.28 z m -5.85,-8.2 c 2.24,0 3.41,1.4 3.64,3.42 h -7.68 c 0.26,-2.13 1.96,-3.42 4.04,-3.42 z m 17.41,3.36 V 148 h 2.24 v -8.12 c 0,-3.33 -1.76,-5.04 -4.42,-5.04 -1.68,0 -3.05,0.9 -3.84,2.32 v -2.04 h -2.24 V 148 h 2.24 v -7.84 c 0,-1.85 1.32,-3.22 3.28,-3.22 1.82,0 2.74,1.09 2.74,3.22 z m 4.48,-5.04 v 2.1 h 2.1 V 148 h 2.24 v -10.78 h 2.1 v -2.1 h -2.1 v -4.48 h -2.24 v 4.48 z m 15.12,0 v 2.1 h 2.1 V 148 h 2.24 v -10.78 h 2.1 v -2.1 h -2.1 v -4.48 h -2.24 v 4.48 z m 7.56,6.44 c 0,3.89 2.89,6.72 6.67,6.72 3.78,0 6.66,-2.83 6.66,-6.72 0,-3.89 -2.88,-6.72 -6.66,-6.72 -3.78,0 -6.67,2.83 -6.67,6.72 z m 2.27,0 c 0,-2.69 1.88,-4.62 4.4,-4.62 2.52,0 4.39,1.93 4.39,4.62 0,2.69 -1.87,4.62 -4.39,4.62 -2.52,0 -4.4,-1.93 -4.4,-4.62 z m 22.9,1.9 -1.76,1.1 c 0.95,2.1 2.94,3.72 5.32,3.72 2.49,0 4.42,-1.15 4.42,-3.92 0,-2.16 -1.73,-3.16 -3.55,-3.92 -1.43,-0.59 -3.19,-0.98 -3.19,-2.21 0,-1.01 0.89,-1.35 2.01,-1.35 1.04,0 2.21,0.76 2.83,1.63 l 1.79,-1.15 c -0.78,-1.43 -2.6,-2.52 -4.65,-2.52 -2.07,0 -4.17,1.06 -4.17,3.47 0,2.44 1.93,3.08 3.7,3.78 1.48,0.59 2.91,1.18 2.91,2.52 0,1.09 -0.9,1.57 -2.1,1.57 -1.23,0 -2.66,-1.15 -3.56,-2.72 z m 19.18,-3.3 V 148 h 2.24 v -8.12 c 0,-3.33 -1.76,-5.04 -4.42,-5.04 -1.68,0 -3.05,0.9 -3.84,2.32 v -11 h -2.24 V 148 h 2.24 v -7.84 c 0,-1.85 1.32,-3.22 3.28,-3.22 1.82,0 2.74,1.09 2.74,3.22 z m 7.45,-2.02 c 0.62,-0.44 1.99,-1.34 3.84,-1.34 1.4,0 2.71,0.67 2.71,1.96 v 2.16 c -0.72,-0.48 -1.82,-0.93 -3.33,-0.93 -3.39,0 -5.49,1.6 -5.49,4.31 0,2.64 1.99,3.98 4.43,3.98 1.93,0 3.61,-0.76 4.39,-2.13 V 148 h 2.24 v -9.24 c 0,-2.49 -2.01,-3.92 -4.95,-3.92 -2.33,0 -3.98,0.9 -4.93,1.6 z m 0,6.08 c 0,-1.57 1.07,-2.52 3.33,-2.52 1.24,0 2.24,0.25 3.22,0.76 v 0.5 c 0,2.41 -1.59,3.33 -3.83,3.33 -1.51,0 -2.72,-0.7 -2.72,-2.07 z m 18.71,-6.64 1.23,-1.84 c -0.67,-0.7 -1.49,-0.9 -2.41,-0.9 -0.98,0 -1.99,0.67 -2.72,1.76 v -1.48 h -2.24 V 148 h 2.24 v -7.84 c 0,-1.85 0.48,-3.22 2.16,-3.22 0.73,0 1.12,0.2 1.74,0.64 z m 14.16,7.42 -1.82,-1.14 c -0.86,1.4 -2.15,2.32 -4.03,2.32 -2.35,0 -3.89,-1.46 -4.09,-4.06 h 10.14 c 0.03,-0.22 0.03,-0.45 0.03,-0.67 0,-4.06 -2.44,-6.61 -6.08,-6.61 -3.33,0 -5.74,2.18 -6.27,5.35 -0.08,0.45 -0.11,0.89 -0.11,1.37 0,3.89 2.6,6.72 6.1,6.72 3.33,0 4.85,-1.32 6.13,-3.28 z m -5.85,-8.2 c 2.24,0 3.42,1.4 3.64,3.42 h -7.67 c 0.25,-2.13 1.96,-3.42 4.03,-3.42 z m 27.78,-1.68 h -2.52 l -3.53,8.88 -3.61,-8.88 h -2.66 l 4.93,11.06 -3.53,7.98 h 2.52 z m 0.56,6.44 c 0,3.89 2.88,6.72 6.66,6.72 3.78,0 6.67,-2.83 6.67,-6.72 0,-3.89 -2.89,-6.72 -6.67,-6.72 -3.78,0 -6.66,2.83 -6.66,6.72 z m 2.27,0 c 0,-2.69 1.87,-4.62 4.39,-4.62 2.52,0 4.4,1.93 4.4,4.62 0,2.69 -1.88,4.62 -4.4,4.62 -2.52,0 -4.39,-1.93 -4.39,-4.62 z m 16.38,1.4 v -7.84 h -2.24 v 8.12 c 0,3.33 1.76,5.04 4.42,5.04 1.68,0 3.05,-0.9 3.84,-2.32 V 148 h 2.24 v -12.88 h -2.24 v 7.84 c 0,1.85 -1.32,3.22 -3.28,3.22 -1.82,0 -2.74,-1.09 -2.74,-3.22 z m 18.59,-5.38 1.23,-1.84 c -0.67,-0.7 -1.48,-0.9 -2.41,-0.9 -0.98,0 -1.99,0.67 -2.71,1.76 v -1.48 h -2.24 V 148 h 2.24 v -7.84 c 0,-1.85 0.47,-3.22 2.15,-3.22 0.73,0 1.12,0.2 1.74,0.64 z m 12.88,3.98 c 0,-2.69 1.87,-4.62 4.39,-4.62 2.08,0 3.9,1.09 4.48,2.35 v -2.8 c -0.89,-1.03 -2.71,-1.65 -4.48,-1.65 -3.78,0 -6.66,2.83 -6.66,6.72 0,3.89 2.88,6.72 6.66,6.72 1.77,0 3.59,-0.59 4.48,-1.65 v -2.8 c -0.58,1.26 -2.4,2.35 -4.48,2.35 -2.52,0 -4.39,-1.93 -4.39,-4.62 z m 11.25,0 c 0,3.89 2.89,6.72 6.67,6.72 3.78,0 6.66,-2.83 6.66,-6.72 0,-3.89 -2.88,-6.72 -6.66,-6.72 -3.78,0 -6.67,2.83 -6.67,6.72 z m 2.27,0 c 0,-2.69 1.88,-4.62 4.4,-4.62 2.52,0 4.39,1.93 4.39,4.62 0,2.69 -1.87,4.62 -4.39,4.62 -2.52,0 -4.4,-1.93 -4.4,-4.62 z m 14.14,-15.4 V 148 h 2.24 v -21.84 z m 6.44,0 V 148 h 2.24 v -21.84 z m 17.56,18.84 -1.82,-1.14 c -0.87,1.4 -2.16,2.32 -4.03,2.32 -2.36,0 -3.9,-1.46 -4.09,-4.06 h 10.13 c 0.03,-0.22 0.03,-0.45 0.03,-0.67 0,-4.06 -2.43,-6.61 -6.07,-6.61 -3.34,0 -5.74,2.18 -6.28,5.35 -0.08,0.45 -0.11,0.89 -0.11,1.37 0,3.89 2.61,6.72 6.11,6.72 3.33,0 4.84,-1.32 6.13,-3.28 z m -5.85,-8.2 c 2.24,0 3.41,1.4 3.64,3.42 h -7.68 c 0.26,-2.13 1.96,-3.42 4.04,-3.42 z m 10.16,4.76 c 0,-2.69 1.88,-4.62 4.4,-4.62 2.07,0 3.89,1.09 4.48,2.35 v -2.8 c -0.9,-1.03 -2.72,-1.65 -4.48,-1.65 -3.78,0 -6.67,2.83 -6.67,6.72 0,3.89 2.89,6.72 6.67,6.72 1.76,0 3.58,-0.59 4.48,-1.65 v -2.8 c -0.59,1.26 -2.41,2.35 -4.48,2.35 -2.52,0 -4.4,-1.93 -4.4,-4.62 z m 10.42,-6.44 v 2.1 h 2.1 V 148 h 2.24 v -10.78 h 2.1 v -2.1 h -2.1 v -4.48 h -2.24 v 4.48 z m 8.68,-5.32 c 0,0.84 0.7,1.54 1.54,1.54 0.84,0 1.54,-0.7 1.54,-1.54 0,-0.84 -0.7,-1.54 -1.54,-1.54 -0.84,0 -1.54,0.7 -1.54,1.54 z m 0.42,5.32 V 148 h 2.24 v -12.88 z m 5.74,6.44 c 0,3.89 2.88,6.72 6.66,6.72 3.78,0 6.66,-2.83 6.66,-6.72 0,-3.89 -2.88,-6.72 -6.66,-6.72 -3.78,0 -6.66,2.83 -6.66,6.72 z m 2.26,0 c 0,-2.69 1.88,-4.62 4.4,-4.62 2.52,0 4.4,1.93 4.4,4.62 0,2.69 -1.88,4.62 -4.4,4.62 -2.52,0 -4.4,-1.93 -4.4,-4.62 z m 22.4,-1.4 V 148 h 2.24 v -8.12 c 0,-3.33 -1.76,-5.04 -4.42,-5.04 -1.68,0 -3.05,0.9 -3.84,2.32 v -2.04 h -2.24 V 148 h 2.24 v -7.84 c 0,-1.85 1.32,-3.22 3.28,-3.22 1.82,0 2.74,1.09 2.74,3.22 z"
           id="tagline"
           inkscape:connector-curvature="0"
           style="fill:#4a5568" />
      </g>
    </g>
  </g>
</svg>
